<svg xmlns="http://www.w3.org/2000/svg" width="89" height="40" fill="none"><path fill="#000" d="m11.104 29 1.12-5.632.896-6.656.896 6.656L15.136 29h7.04l3.904-15.808h-6.272l-.704 6.752-.512 5.568-.896-5.536-1.44-6.784H9.92l-1.312 6.784-.96 5.536-.512-5.568-.704-6.752H.16L4.064 29h7.04Zm23.306.32c2.56 0 4.256-1.216 4.928-1.984l-1.568-4.32c-.512.8-1.344 1.312-2.048 1.312-.736 0-1.152-.416-1.152-1.248v-5.536h3.84v-4.352h-3.84V8.84l-5.76 2.56v1.792h-2.24v4.352h2.24v6.368c0 3.072 1.504 5.408 5.6 5.408ZM49.667 29l1.12-5.632.895-6.656.896 6.656L53.698 29h7.04l3.904-15.808h-6.271l-.705 6.752-.511 5.568-.897-5.536-1.44-6.784h-6.335l-1.313 6.784-.96 5.536-.511-5.568-.704-6.752h-6.273L42.626 29h7.04Zm21.467 0v-7.968c0-2.56 1.216-3.808 2.528-3.808.928 0 1.312.608 1.312 1.504 0 .96-.64 2.176-1.216 2.848h5.28c.448-.8 1.088-2.432 1.088-4.352 0-2.624-1.024-4.352-3.776-4.352-3.232 0-4.736 2.944-5.216 5.664v-5.344h-5.76V29h5.76Zm13.25-15.776c1.729 0 3.137-1.28 3.137-3.168 0-1.856-1.408-3.136-3.136-3.136-1.728 0-3.136 1.28-3.136 3.136 0 1.888 1.408 3.168 3.136 3.168Zm0-2.208c-.511 0-.831-.352-.831-.96s.32-.928.832-.928.832.32.832.928c0 .608-.32.96-.832.96Z"/></svg>