<svg xmlns="http://www.w3.org/2000/svg" width="20" height="18" fill="none"><path stroke="#000" stroke-opacity=".6" stroke-width="2" d="M10 16 2.366 8.67a4.3 4.3 0 0 1-1.218-2.04 4.511 4.511 0 0 1 .007-2.31c.203-.77.607-1.441 1.21-2.011a4.609 4.609 0 0 1 2.118-1.163 4.934 4.934 0 0 1 2.384 0A4.696 4.696 0 0 1 8.991 2.31l1.01.94 1.01-.94a4.747 4.747 0 0 1 2.125-1.163 4.904 4.904 0 0 1 2.377 0c.797.19 1.505.578 2.124 1.163a4.195 4.195 0 0 1 1.21 2.01 4.457 4.457 0 0 1 0 2.31 4.246 4.246 0 0 1-1.21 2.04L10.001 16Z"/></svg>